<svg version="1.0" xmlns="http://www.w3.org/2000/svg"
 width="512pt" height="512pt" viewBox="0 0 512.000000 512.000000"
 preserveAspectRatio="xMidYMid meet">

<g transform="translate(0.000000,512.000000) scale(0.100000,-0.100000)"
fill="#000000" stroke="none">
<path d="M2380 5114 c-580 -53 -1096 -300 -1494 -714 -378 -395 -607 -922
-635 -1460 -35 -689 216 -1327 708 -1802 l111 -108 -155 0 c-209 0 -195 16
-195 -224 l0 -184 -42 -7 c-96 -16 -164 -65 -202 -145 -18 -40 -21 -67 -24
-230 -4 -177 -3 -186 18 -213 l21 -27 2069 0 2069 0 21 27 c21 27 22 36 18
213 -3 163 -6 190 -24 230 -38 80 -106 129 -201 145 l-43 7 0 184 c0 240 14
224 -195 224 l-155 0 111 108 c492 475 743 1113 708 1802 -42 814 -529 1555
-1268 1929 -224 113 -456 188 -701 226 -101 15 -428 27 -520 19z m408 -135
c909 -98 1669 -756 1891 -1637 49 -194 64 -325 64 -537 -1 -205 -15 -333 -59
-514 -77 -315 -242 -643 -448 -890 -80 -95 -243 -253 -332 -320 l-67 -51
-1279 0 -1279 0 -72 57 c-380 302 -656 734 -771 1204 -44 181 -58 309 -59 514
0 212 15 343 64 537 220 875 978 1535 1879 1637 110 12 356 13 468 0z m1482
-4219 l0 -140 -1710 0 -1710 0 0 140 0 140 1710 0 1710 0 0 -140z m200 -288
c57 -28 70 -67 70 -214 l0 -128 -1980 0 -1980 0 0 128 c0 147 13 186 70 214
33 17 145 18 1910 18 1765 0 1877 -1 1910 -18z"/>
</g>
</svg>
